<svg width="40" height="40" viewBox="0 0 40 40" fill="none" xmlns="http://www.w3.org/2000/svg">
<path fill-rule="evenodd" clip-rule="evenodd" d="M13.3333 0.8C13.3333 0.358172 12.9752 0 12.5333 0H0.8C0.358172 0 0 0.358173 0 0.800001V12.5333C0 12.9752 0.358173 13.3333 0.800001 13.3333H5.86667C6.30849 13.3333 6.66667 13.6915 6.66667 14.1333V25.8667C6.66667 26.3085 6.30849 26.6667 5.86667 26.6667H0.8C0.358172 26.6667 0 27.0248 0 27.4667V39.2C0 39.6418 0.358173 40 0.800001 40H12.5333C12.9752 40 13.3333 39.6418 13.3333 39.2V34.1333C13.3333 33.6915 13.6915 33.3333 14.1333 33.3333H25.8667C26.3085 33.3333 26.6667 33.6915 26.6667 34.1333V39.2C26.6667 39.6418 27.0248 40 27.4667 40H39.2C39.6418 40 40 39.6418 40 39.2V27.4667C40 27.0248 39.6418 26.6667 39.2 26.6667H34.1333C33.6915 26.6667 33.3333 26.3085 33.3333 25.8667V14.1333C33.3333 13.6915 33.6915 13.3333 34.1333 13.3333H39.2C39.6418 13.3333 40 12.9752 40 12.5333V0.8C40 0.358172 39.6418 0 39.2 0H27.4667C27.0248 0 26.6667 0.358173 26.6667 0.800001V5.86667C26.6667 6.30849 26.3085 6.66667 25.8667 6.66667H14.1333C13.6915 6.66667 13.3333 6.30849 13.3333 5.86667V0.8ZM25.8667 13.3333C26.3085 13.3333 26.6667 13.6915 26.6667 14.1333V25.8667C26.6667 26.3085 26.3085 26.6667 25.8667 26.6667H14.1333C13.6915 26.6667 13.3333 26.3085 13.3333 25.8667V14.1333C13.3333 13.6915 13.6915 13.3333 14.1333 13.3333H25.8667Z" fill="#05A2C2"/>
</svg>
